<svg xmlns="http://www.w3.org/2000/svg" width="72" height="56"><path d="m0 0h72v56h-72z" fill="none"/><path d="m68 50v-22.0193c0-1.0939-.8867-1.9807-1.9807-1.9807h-32.0386c-1.094 0-1.9807.8868-1.9807 1.9807v22.0193h-4v.5c0 .2761.1118.5261.293.7071.1809.181.4309.2929.707.2929h2l.2859.5h3.4282l.2859-.5h30l.2859.5h3.4282l.2859-.5h2c.5522 0 1-.4478 1-1v-.5zm-1.5 0h-33v-22.0193c0-.265.2156-.4807.4807-.4807h13.7693c0 .5522.4478 1 1 1h2.5c.5522 0 1-.4478 1-1h13.7693c.2651 0 .4807.2156.4807.4807zm-39.5 0h-20.5v-26c0-.2757.2244-.5.5-.5h16.7598c.0269.5552.4771 1 1.0391 1h3.4023c.562 0 1.0122-.4448 1.0391-1h16.7598c.2756 0 .5.2243.5.5v1h1.5v-1c0-1.1046-.8955-2-2-2h-39.0001c-1.1045 0-2 .8954-2 2v26h-5v.5c0 .5522.4478 1 1 1h3l.2859.5h3.4282l.2859-.5h19.2783c-.1724-.2953-.2783-.6341-.2783-1z" fill="#fff"/></svg>